<?xml version="1.0" standalone="no"?>
<!DOCTYPE svg PUBLIC "-//W3C//DTD SVG 20010904//EN"
 "http://www.w3.org/TR/2001/REC-SVG-20010904/DTD/svg10.dtd">
<svg version="1.0" xmlns="http://www.w3.org/2000/svg"
 width="500.000000pt" height="500.000000pt" viewBox="0 0 500.000000 500.000000"
 preserveAspectRatio="xMidYMid meet">

<g transform="translate(0.000000,500.000000) scale(0.100000,-0.100000)"
fill="#000000" stroke="none">
<path d="M1430 3580 c-165 -33 -161 -32 -154 -54 13 -48 46 -63 136 -64 45 0
91 5 102 10 12 7 22 6 29 -1 16 -16 64 -13 92 5 21 14 26 14 55 -1 18 -10 39
-32 48 -54 l17 -37 24 29 c13 16 34 33 47 38 32 12 30 21 -13 59 -65 57 -115
74 -233 76 -58 2 -125 -1 -150 -6z"/>
<path d="M1817 3400 c-49 -39 -51 -73 -17 -211 88 -348 175 -640 217 -722 27
-55 77 -91 104 -76 10 5 21 9 26 9 4 -1 -9 -10 -29 -20 -62 -33 -92 -82 -96
-160 -6 -95 29 -158 113 -204 29 -16 29 -17 -50 -11 -117 9 -302 34 -365 50
-94 25 -66 8 48 -29 225 -71 418 -98 697 -98 211 0 371 14 547 48 126 24 320
83 368 111 17 9 18 12 5 8 -178 -57 -474 -91 -870 -100 l-240 -6 35 20 c36 19
69 49 105 93 19 23 128 51 441 114 17 3 23 -2 28 -20 8 -32 52 -83 87 -101 42
-22 124 -19 169 6 49 28 84 90 84 149 0 113 -108 198 -215 170 -48 -13 -105
-62 -123 -105 -12 -28 -20 -33 -62 -39 -27 -4 -120 -23 -207 -42 -87 -19 -163
-34 -168 -34 -5 0 -9 9 -9 20 0 31 -28 92 -56 121 l-25 26 92 6 c196 14 423
65 575 128 174 73 241 192 251 449 7 176 -23 350 -61 350 -8 0 -43 -16 -78
-36 -125 -71 -346 -178 -476 -230 -225 -91 -398 -136 -598 -157 l-42 -5 -16
57 c-27 91 -106 394 -106 406 0 5 -5 27 -11 48 -12 43 -32 48 -72 17z m1408
-147 c4 -10 10 -97 12 -193 7 -253 -10 -325 -98 -410 -44 -43 -131 -101 -174
-116 -11 -4 7 13 40 38 76 56 128 116 163 188 26 53 27 63 30 233 5 230 -6
252 -104 211 -48 -20 -40 -11 28 32 60 37 93 42 103 17z m-84 -171 c-2 -16
-26 -35 -88 -68 -46 -26 -85 -45 -87 -43 -9 12 -26 104 -19 106 4 2 49 25 98
52 l90 49 5 -36 c3 -20 4 -47 1 -60z m-225 -83 l11 -50 -65 -30 c-36 -16 -66
-29 -68 -29 -3 0 -18 85 -19 103 0 9 94 55 116 56 10 1 18 -14 25 -50z m233
-29 l-3 -50 -74 -41 c-40 -22 -75 -39 -77 -37 -2 2 -7 22 -11 44 l-6 41 83 46
c46 25 85 46 87 46 2 1 2 -22 1 -49z m-404 -40 c4 -27 4 -53 1 -58 -6 -11
-125 -57 -130 -51 -2 2 -7 29 -11 60 l-7 56 54 21 c80 31 85 30 93 -28z m-184
-22 c0 -7 4 -34 8 -60 l8 -48 -51 -19 c-101 -37 -93 -39 -101 29 -4 34 -4 64
0 68 9 10 96 40 118 41 9 1 17 -5 18 -11z m379 -5 c0 -5 4 -25 9 -46 l9 -38
-59 -29 c-32 -17 -63 -30 -69 -30 -5 0 -12 12 -16 28 -3 15 -8 34 -10 42 -3
11 15 26 59 47 66 34 77 37 77 26z m-555 -99 c4 -36 5 -67 3 -68 -1 -1 -34
-12 -73 -23 l-70 -20 -7 66 c-4 36 -5 67 -3 70 4 3 122 39 136 40 4 1 10 -29
14 -65z m745 7 c-8 -32 -21 -47 -52 -67 -44 -28 -53 -25 -62 22 -7 30 -5 33
56 67 35 20 64 32 66 27 2 -5 -2 -27 -8 -49z m-356 -36 l6 -41 -68 -26 c-73
-29 -76 -28 -85 32 l-5 36 66 26 c37 14 70 23 73 19 4 -3 9 -24 13 -46z m-580
8 c8 -52 8 -103 -1 -103 -5 0 -29 -7 -54 -14 l-47 -14 -21 65 c-12 36 -20 68
-17 70 6 6 97 31 117 32 11 1 18 -11 23 -36z m790 -59 c7 -30 5 -31 -63 -62
-39 -17 -72 -28 -75 -24 -2 4 -6 23 -10 42 l-6 35 68 31 c71 33 75 32 86 -22z
m-394 -18 l7 -45 -70 -26 c-38 -14 -72 -23 -75 -21 -2 3 -7 25 -9 49 l-5 45
53 19 c77 29 84 31 88 27 2 -2 7 -24 11 -48z m206 -93 c-6 -7 -38 -23 -71 -37
-66 -27 -73 -24 -74 35 -1 23 8 30 67 56 l67 30 11 -36 c9 -27 9 -39 0 -48z
m-396 37 c0 -22 1 -43 3 -47 2 -8 -115 -51 -141 -52 -10 -1 -12 13 -10 51 l3
52 55 17 c85 26 90 25 90 -21z m660 25 c-7 -9 -15 -13 -19 -10 -3 3 1 10 9 15
21 14 24 12 10 -5z m-62 -41 c-9 -9 -138 -52 -138 -46 1 12 135 69 139 60 1
-5 1 -11 -1 -14z m-794 -10 c3 -9 6 -33 6 -54 0 -36 -2 -38 -36 -45 -20 -3
-37 -5 -38 -3 -6 10 -26 76 -26 85 0 6 17 15 38 21 51 14 49 14 56 -4z m406
-26 c0 -13 3 -32 6 -44 5 -19 -1 -22 -52 -32 -95 -20 -106 -17 -102 21 3 29 8
34 63 54 76 28 85 28 85 1z m-192 -76 c3 -21 1 -22 -79 -22 -45 0 -80 2 -78 4
9 10 125 45 139 43 8 -1 16 -12 18 -25z m-203 -112 c-11 -5 -29 -8 -40 -8 -16
0 -15 2 5 8 34 11 60 11 35 0z m100 -14 c19 -8 35 -17 35 -20 0 -3 -15 1 -32
8 -18 7 -40 16 -48 19 -10 3 -10 6 -2 6 7 1 28 -6 47 -13z m820 -47 c43 -38
47 -58 5 -28 -16 13 -33 20 -37 16 -3 -4 -1 -7 5 -7 14 0 42 -52 42 -79 0 -52
-50 -101 -104 -101 -37 0 -86 48 -92 91 -5 28 -1 41 21 67 32 38 19 43 -19 7
-16 -15 -26 -19 -26 -11 0 8 16 28 35 45 30 26 44 31 85 31 41 0 55 -5 85 -31z
m-852 7 c33 -13 97 -78 97 -97 0 -6 -19 6 -42 25 -23 20 -49 36 -57 36 -11 -1
-9 -5 7 -13 103 -58 56 -217 -64 -217 -34 0 -51 6 -76 29 -30 27 -33 35 -33
86 0 51 3 59 33 86 18 16 30 29 27 29 -16 0 -66 -33 -79 -52 -9 -12 -16 -17
-16 -9 0 26 44 74 84 92 49 22 76 23 119 5z"/>
<path d="M3012 2294 c-45 -31 -17 -104 40 -104 51 0 78 69 40 103 -23 21 -51
22 -80 1z"/>
<path d="M2208 2323 c12 -2 30 -2 40 0 9 3 -1 5 -23 4 -22 0 -30 -2 -17 -4z"/>
<path d="M2175 2255 c-14 -13 -25 -36 -25 -50 0 -35 42 -75 78 -75 36 0 72 37
72 74 0 34 -41 76 -75 76 -14 0 -37 -11 -50 -25z"/>
<path d="M3410 2073 c-212 -109 -607 -184 -1059 -200 -207 -8 -192 -16 49 -28
243 -12 537 22 736 86 118 37 265 107 314 148 42 37 42 36 -40 -6z"/>
<path d="M1220 2048 c-10 -17 -17 -35 -14 -40 3 -4 24 -5 46 -1 24 3 39 2 36
-3 -3 -5 -26 -46 -52 -91 -26 -45 -59 -91 -74 -102 l-26 -19 49 -31 c27 -17
54 -30 60 -28 5 2 12 17 15 34 5 33 90 193 102 193 4 0 14 -16 23 -36 16 -39
27 -38 50 5 13 26 13 30 -3 43 -19 16 -178 108 -187 108 -3 0 -14 -14 -25 -32z"/>
<path d="M3653 2009 c-110 -58 -109 -57 -76 -88 38 -34 113 -171 113 -205 0
-32 13 -33 68 -4 41 22 58 58 27 58 -8 0 -22 12 -32 26 -17 26 -17 27 6 43 81
55 98 98 66 161 -32 62 -67 64 -172 9z m96 -45 c12 -15 21 -33 21 -40 0 -16
-35 -54 -49 -54 -9 0 -64 91 -59 95 40 30 63 30 87 -1z"/>
<path d="M1454 1945 c-3 -8 -3 -18 0 -24 10 -15 -80 -198 -103 -210 -12 -7
-21 -16 -21 -22 0 -11 101 -58 113 -52 4 2 7 17 7 32 0 38 76 198 100 211 28
15 25 27 -10 45 -60 31 -80 36 -86 20z"/>
<path d="M3394 1887 c-49 -24 -84 -69 -84 -109 0 -42 34 -121 66 -153 30 -30
41 -35 82 -35 95 0 169 69 158 148 -3 23 -14 59 -25 80 -45 88 -110 110 -197
69z m89 -45 c45 -50 73 -167 45 -189 -33 -25 -50 -23 -82 10 -52 55 -75 165
-38 186 26 16 57 13 75 -7z"/>
<path d="M1579 1883 c-1 -5 0 -19 0 -33 3 -39 -57 -193 -82 -212 -25 -19 -18
-30 30 -46 38 -12 44 -8 37 27 -3 16 6 58 24 105 l29 80 43 -130 c41 -126 70
-178 89 -159 5 6 24 55 44 110 47 134 47 133 61 138 9 4 11 -2 8 -18 -6 -31
12 -39 48 -20 26 13 30 13 30 1 0 -37 -43 -196 -56 -207 -26 -22 -15 -37 36
-48 72 -16 73 -15 66 20 -7 35 32 219 47 219 5 0 18 -12 30 -26 19 -25 21 -26
34 -8 15 21 17 60 3 69 -5 3 -60 16 -122 29 -62 13 -126 29 -141 35 -42 16
-50 14 -44 -15 5 -26 -17 -110 -33 -127 -4 -5 -22 33 -39 85 -17 51 -35 98
-39 104 -14 21 -101 43 -103 27z"/>
<path d="M2118 1873 c7 -3 16 -2 19 1 4 3 -2 6 -13 5 -11 0 -14 -3 -6 -6z"/>
<path d="M3198 1814 c-29 -9 -48 -20 -48 -29 0 -8 5 -15 10 -15 10 0 24 -29
36 -74 5 -21 1 -24 -42 -35 -60 -15 -69 -7 -68 64 1 61 1 61 -65 41 -50 -14
-62 -31 -37 -49 22 -16 68 -193 60 -229 -6 -32 2 -34 72 -17 49 13 52 18 25
57 -10 15 -22 39 -25 54 -6 25 -3 28 41 41 58 16 66 9 68 -68 1 -55 -1 -54 78
-34 38 10 49 31 23 46 -17 10 -67 187 -63 227 3 36 -6 38 -65 20z"/>
<path d="M2815 1741 c-72 -18 -100 -57 -83 -118 11 -41 38 -59 103 -68 73 -10
94 -35 59 -69 -24 -24 -61 -20 -80 9 -26 40 -74 29 -74 -16 0 -5 9 -18 20 -29
24 -24 113 -28 165 -6 65 27 84 106 36 150 -13 12 -100 35 -138 36 -1 0 -7 9
-13 21 -14 26 3 49 36 49 16 0 28 -8 36 -25 22 -49 87 -20 68 31 -8 21 -58 45
-89 43 -9 -1 -29 -4 -46 -8z"/>
<path d="M2120 1731 c0 -7 4 -20 9 -29 12 -24 -16 -214 -35 -228 -24 -19 -16
-33 24 -39 20 -3 47 -8 59 -11 28 -5 36 8 23 38 -15 32 12 212 35 234 23 23 9
32 -58 40 -41 5 -57 3 -57 -5z"/>
<path d="M2260 1701 c0 -11 5 -23 10 -26 16 -10 1 -206 -17 -227 -22 -24 -8
-38 39 -38 37 0 40 2 33 23 -13 41 -16 91 -8 146 l8 54 84 -117 c82 -114 111
-137 125 -100 3 9 6 64 6 123 0 80 4 112 16 129 20 29 11 42 -31 42 -38 0 -52
-14 -35 -35 6 -8 10 -39 8 -76 l-3 -63 -67 92 -68 92 -50 0 c-43 0 -50 -3 -50
-19z"/>
<path d="M1460 1210 c0 -48 1 -50 28 -49 26 0 26 1 5 9 -26 11 -31 30 -8 30 8
0 15 5 15 10 0 6 -7 10 -15 10 -23 0 -18 19 8 30 21 8 21 9 -5 9 -27 1 -28 -1
-28 -49z"/>
<path d="M1590 1235 c-11 -30 -23 -86 -14 -67 3 6 16 12 29 12 13 0 25 -6 28
-12 2 -7 7 -11 10 -8 8 7 -25 100 -36 100 -4 0 -12 -11 -17 -25z m30 -31 c0
-8 -7 -14 -15 -14 -17 0 -18 2 -9 24 7 18 24 12 24 -10z"/>
<path d="M1709 1244 c-11 -14 -11 -18 6 -30 10 -8 22 -14 27 -14 4 0 8 -7 8
-15 0 -17 -16 -20 -25 -5 -3 6 -11 10 -17 10 -7 0 -6 -6 2 -15 17 -20 49 -19
57 1 6 16 -13 38 -40 47 -6 2 -7 9 -3 16 6 9 11 9 24 -1 13 -11 14 -11 10 2
-7 21 -32 24 -49 4z"/>
<path d="M1826 1245 c24 -69 33 -88 34 -72 0 10 7 32 16 48 20 39 11 50 -10
12 -8 -15 -15 -23 -16 -17 0 5 -7 19 -16 30 -15 19 -16 19 -8 -1z"/>
<path d="M2027 1254 c-16 -16 -6 -42 18 -48 26 -7 32 -20 15 -31 -6 -4 -18 -1
-27 7 -14 11 -15 11 -11 -2 2 -8 16 -15 29 -15 36 0 38 38 3 54 -20 9 -24 15
-16 23 8 8 16 7 28 -3 15 -12 17 -12 12 1 -5 16 -39 25 -51 14z"/>
<path d="M2143 1210 c0 -30 2 -45 4 -32 6 30 53 32 53 2 0 -11 5 -20 10 -20 6
0 10 23 10 50 0 28 -4 50 -10 50 -5 0 -10 -9 -10 -20 0 -30 -47 -28 -53 3 -2
12 -4 -3 -4 -33z"/>
<path d="M2287 1242 c-21 -23 -22 -46 -1 -66 30 -31 84 -9 84 34 0 24 -26 50
-49 50 -10 0 -25 -8 -34 -18z m47 2 c20 -8 21 -60 1 -68 -37 -14 -62 33 -33
62 14 14 12 14 32 6z"/>
<path d="M2420 1210 c0 -27 5 -50 10 -50 6 0 10 9 10 20 0 11 6 20 14 20 7 0
19 7 26 15 17 20 -3 45 -36 45 -22 0 -24 -4 -24 -50z m48 17 c2 -10 -3 -17
-12 -17 -10 0 -16 9 -16 21 0 24 23 21 28 -4z"/>
<path d="M2540 1210 c0 -27 5 -50 10 -50 6 0 10 9 10 19 0 13 8 21 22 23 26 3
37 36 16 49 -7 5 -23 9 -35 9 -21 0 -23 -5 -23 -50z m49 31 c16 -10 6 -31 -15
-31 -8 0 -14 9 -14 20 0 22 7 25 29 11z"/>
<path d="M2660 1211 c0 -57 19 -71 22 -16 0 19 1 40 2 47 1 6 -5 13 -11 16 -9
2 -13 -11 -13 -47z"/>
<path d="M2730 1223 l0 -38 -20 25 c-11 14 -20 21 -20 15 0 -5 11 -23 25 -40
l24 -30 1 53 c0 28 -2 52 -5 52 -3 0 -5 -17 -5 -37z"/>
<path d="M2818 1249 c-21 -12 -24 -59 -6 -77 25 -25 78 -8 78 25 0 8 -11 13
-27 12 -27 -1 -27 -1 -4 -8 22 -6 22 -7 6 -21 -21 -17 -49 -3 -53 28 -4 25 27
45 49 31 22 -14 33 -11 19 6 -14 17 -37 19 -62 4z"/>
<path d="M3141 1208 c1 -29 4 -43 6 -30 2 12 11 22 19 22 8 0 14 5 14 10 0 6
-7 10 -15 10 -24 0 -17 28 8 33 19 4 18 4 -5 6 -27 1 -28 0 -27 -51z"/>
<path d="M3275 1251 c-15 -25 -33 -91 -25 -91 6 0 10 5 10 10 0 6 11 10 25 10
14 0 25 -4 25 -10 0 -5 4 -10 9 -10 11 0 -16 87 -29 95 -5 3 -11 1 -15 -4z
m25 -53 c0 -5 -7 -8 -15 -8 -17 0 -18 2 -9 25 5 13 8 14 15 3 5 -7 9 -16 9
-20z"/>
<path d="M3383 1244 c-6 -16 12 -37 41 -47 8 -3 7 -8 -1 -17 -10 -11 -15 -11
-29 1 -15 12 -17 12 -12 -1 6 -20 35 -25 53 -10 22 18 18 28 -16 46 -22 11
-28 19 -21 26 8 8 16 7 28 -3 15 -12 17 -12 12 1 -7 22 -47 25 -55 4z"/>
<path d="M3508 1253 c7 -3 12 -23 12 -49 0 -24 5 -44 10 -44 6 0 10 20 10 44
0 26 5 46 13 49 6 3 -4 5 -23 5 -19 0 -29 -2 -22 -5z"/>
<path d="M2963 1213 c9 -2 23 -2 30 0 6 3 -1 5 -18 5 -16 0 -22 -2 -12 -5z"/>
<path d="M2080 1030 c0 -49 1 -50 29 -50 27 0 61 29 61 52 0 17 -42 48 -65 48
-23 0 -25 -3 -25 -50z m51 30 c21 -12 25 -40 7 -58 -24 -24 -38 -13 -38 28 0
43 2 45 31 30z"/>
<path d="M2220 1030 c0 -48 1 -50 28 -49 16 1 20 3 10 6 -22 5 -24 33 -3 33 8
0 15 5 15 10 0 6 -7 10 -15 10 -21 0 -19 28 3 33 10 3 6 5 -10 6 -27 1 -28 -1
-28 -49z"/>
<path d="M2330 1030 c0 -48 1 -50 28 -49 16 1 20 3 10 6 -14 3 -18 15 -18 49
0 24 -4 44 -10 44 -5 0 -10 -22 -10 -50z"/>
<path d="M2433 1030 c0 -30 2 -43 4 -27 2 15 2 39 0 55 -2 15 -4 2 -4 -28z"/>
<path d="M2501 1073 c-1 -18 30 -93 39 -93 10 0 44 90 36 97 -5 6 -26 -39 -26
-58 0 -22 -19 -6 -33 29 -8 20 -15 31 -16 25z"/>
<path d="M2640 1030 c0 -48 1 -50 28 -49 23 2 24 2 5 6 -25 5 -32 33 -8 33 8
0 15 5 15 10 0 6 -7 10 -15 10 -24 0 -17 28 8 33 19 4 18 4 -5 6 -27 1 -28 -1
-28 -49z"/>
<path d="M2751 1028 c1 -29 4 -43 6 -30 5 27 20 29 28 2 3 -11 11 -20 16 -20
12 0 12 17 -1 25 -6 4 -5 13 2 24 16 26 3 51 -27 51 -24 0 -25 -3 -24 -52z
m44 22 c0 -8 -8 -16 -17 -18 -13 -2 -18 3 -18 18 0 15 5 20 18 18 9 -2 17 -10
17 -18z"/>
<path d="M2876 1065 c28 -80 33 -90 34 -67 0 12 7 34 16 48 9 13 14 27 11 30
-3 3 -12 -7 -21 -23 -8 -15 -15 -23 -16 -17 0 5 -7 19 -16 30 -15 19 -16 19
-8 -1z"/>
</g>
</svg>
